<?xml version="1.0" standalone="no"?>
<!DOCTYPE svg PUBLIC "-//W3C//DTD SVG 20010904//EN"
 "http://www.w3.org/TR/2001/REC-SVG-20010904/DTD/svg10.dtd">
<svg version="1.0" xmlns="http://www.w3.org/2000/svg"
 width="436.000000pt" height="436.000000pt" viewBox="0 0 436.000000 436.000000"
 preserveAspectRatio="xMidYMid meet">
<metadata>
Created by potrace 1.14, written by Peter Selinger 2001-2017
</metadata>
<g transform="translate(0.000000,436.000000) scale(0.100000,-0.100000)"
fill="#000000" stroke="none">
<path d="M775 3266 c-136 -43 -213 -148 -203 -273 7 -77 36 -135 108 -215 33
-36 60 -70 60 -75 0 -4 -163 -8 -362 -8 l-363 0 -3 -154 c-1 -88 1 -157 7
-160 5 -3 212 -5 459 -5 508 2 517 3 594 77 59 57 82 116 82 207 0 96 -21 140
-113 240 -38 41 -67 78 -65 81 5 9 414 9 415 1 1 -4 2 -142 3 -306 l1 -299
149 -1 c81 -1 153 2 159 6 9 5 12 89 14 290 1 156 2 291 2 300 1 15 17 17 154
17 83 0 171 0 194 0 l42 1 -1 145 0 144 -646 0 c-495 0 -656 -3 -687 -13z"/>
<path d="M2232 3208 c-58 -188 -186 -612 -209 -688 -14 -47 -29 -97 -33 -112
-8 -26 -6 -28 18 -29 30 -1 255 -1 288 0 16 1 24 14 40 64 l19 62 154 0 155 0
20 -62 c17 -55 23 -63 45 -64 81 -3 293 0 297 4 3 3 -21 92 -54 199 -33 106
-92 297 -131 423 -39 127 -75 240 -81 253 -10 22 -10 22 -258 22 l-248 0 -22
-72z"/>
<path d="M3099 3278 c-1 -2 -3 -204 -4 -450 l-1 -448 30 -1 c35 -1 307 -1 319
0 4 1 7 52 7 115 0 63 4 117 8 120 5 3 51 -38 103 -90 98 -100 139 -127 204
-140 22 -4 164 -7 315 -7 l275 0 0 156 c0 86 -2 158 -5 158 -3 1 -110 2 -238
3 -270 2 -283 6 -202 65 59 44 89 87 106 149 37 142 -28 276 -166 341 l-55 26
-347 3 c-192 2 -349 2 -349 0z"/>
<path d="M72 1972 c-28 -2 -52 -7 -52 -12 0 -5 6 -27 14 -47 8 -21 39 -119 69
-218 31 -99 86 -279 124 -400 l68 -220 152 -3 152 -3 41 133 c23 73 47 149 55
168 l13 35 10 -25 c5 -14 29 -89 53 -167 l43 -143 153 0 152 0 31 103 c17 56
45 147 62 202 17 55 36 118 43 141 8 22 32 103 55 180 23 76 50 166 61 198 10
33 19 64 19 70 0 11 -305 14 -334 3 -7 -3 -16 -18 -19 -34 -8 -46 -48 -177
-56 -186 -4 -4 -22 41 -40 100 -19 60 -37 112 -41 116 -7 8 -28 9 -261 8
l-116 -1 -28 -107 c-15 -60 -31 -112 -35 -116 -6 -7 -70 184 -70 211 0 7 -3
12 -7 12 -45 3 -270 4 -311 2z"/>
<path d="M1590 1972 l-55 -3 -97 -322 c-53 -177 -113 -375 -132 -439 -20 -64
-36 -121 -36 -127 0 -7 53 -11 164 -11 l165 0 17 58 c10 31 20 60 24 64 5 7
133 11 257 9 l51 -1 22 -65 22 -65 157 0 c87 0 160 2 163 6 3 3 -14 69 -39
147 -84 269 -141 452 -178 572 -56 187 -49 175 -109 176 -28 0 -116 1 -196 2
-80 1 -170 1 -200 -1z"/>
<path d="M2407 1972 c-16 -3 -17 -41 -17 -453 l0 -449 178 2 177 3 2 85 c1 47
2 103 2 124 l1 39 113 -111 c156 -152 119 -144 634 -140 390 3 410 4 453 24
53 25 103 73 133 129 17 32 22 57 22 125 0 76 -3 90 -30 137 -16 29 -59 82
-94 118 -35 36 -62 68 -59 70 3 3 101 6 219 8 l214 2 0 143 1 142 -46 1 c-338
4 -559 -1 -597 -15 -128 -45 -203 -158 -189 -279 9 -75 36 -126 105 -199 33
-36 61 -71 61 -77 0 -8 -73 -11 -254 -11 -215 0 -255 2 -266 15 -7 9 -11 17
-9 18 2 2 24 16 48 32 166 112 144 381 -39 474 -77 40 -103 42 -428 44 -175 1
-326 1 -335 -1z"/>
</g>
</svg>
